<svg viewBox="0 0 600 600" xmlns="http://www.w3.org/2000/svg" aria-hidden="true">
  <defs>
    <linearGradient id="mg" x1="0" y1="0" x2="1" y2="1">
      <stop offset="0" stop-color="#00e0ff"/>
      <stop offset="0.5" stop-color="#4d7cff"/>
      <stop offset="1" stop-color="#7a5cff"/>
    </linearGradient>
  </defs>
  <g fill="none" stroke="url(#mg)" stroke-width="1.4" stroke-linecap="round" stroke-linejoin="round">
    <g opacity="0.55">
      <circle cx="300" cy="300" r="292"/>
      <circle cx="300" cy="300" r="284"/>
      <g transform="rotate(0 300 300)"><line x1="300" y1="12" x2="300" y2="20"/></g><g transform="rotate(5 300 300)"><line x1="300" y1="12" x2="300" y2="20"/></g><g transform="rotate(10 300 300)"><line x1="300" y1="12" x2="300" y2="20"/></g><g transform="rotate(15 300 300)"><line x1="300" y1="12" x2="300" y2="20"/></g><g transform="rotate(20 300 300)"><line x1="300" y1="12" x2="300" y2="20"/></g><g transform="rotate(25 300 300)"><line x1="300" y1="12" x2="300" y2="20"/></g><g transform="rotate(30 300 300)"><line x1="300" y1="12" x2="300" y2="20"/></g><g transform="rotate(35 300 300)"><line x1="300" y1="12" x2="300" y2="20"/></g><g transform="rotate(40 300 300)"><line x1="300" y1="12" x2="300" y2="20"/></g><g transform="rotate(45 300 300)"><line x1="300" y1="12" x2="300" y2="20"/></g><g transform="rotate(50 300 300)"><line x1="300" y1="12" x2="300" y2="20"/></g><g transform="rotate(55 300 300)"><line x1="300" y1="12" x2="300" y2="20"/></g><g transform="rotate(60 300 300)"><line x1="300" y1="12" x2="300" y2="20"/></g><g transform="rotate(65 300 300)"><line x1="300" y1="12" x2="300" y2="20"/></g><g transform="rotate(70 300 300)"><line x1="300" y1="12" x2="300" y2="20"/></g><g transform="rotate(75 300 300)"><line x1="300" y1="12" x2="300" y2="20"/></g><g transform="rotate(80 300 300)"><line x1="300" y1="12" x2="300" y2="20"/></g><g transform="rotate(85 300 300)"><line x1="300" y1="12" x2="300" y2="20"/></g><g transform="rotate(90 300 300)"><line x1="300" y1="12" x2="300" y2="20"/></g><g transform="rotate(95 300 300)"><line x1="300" y1="12" x2="300" y2="20"/></g><g transform="rotate(100 300 300)"><line x1="300" y1="12" x2="300" y2="20"/></g><g transform="rotate(105 300 300)"><line x1="300" y1="12" x2="300" y2="20"/></g><g transform="rotate(110 300 300)"><line x1="300" y1="12" x2="300" y2="20"/></g><g transform="rotate(115 300 300)"><line x1="300" y1="12" x2="300" y2="20"/></g><g transform="rotate(120 300 300)"><line x1="300" y1="12" x2="300" y2="20"/></g><g transform="rotate(125 300 300)"><line x1="300" y1="12" x2="300" y2="20"/></g><g transform="rotate(130 300 300)"><line x1="300" y1="12" x2="300" y2="20"/></g><g transform="rotate(135 300 300)"><line x1="300" y1="12" x2="300" y2="20"/></g><g transform="rotate(140 300 300)"><line x1="300" y1="12" x2="300" y2="20"/></g><g transform="rotate(145 300 300)"><line x1="300" y1="12" x2="300" y2="20"/></g><g transform="rotate(150 300 300)"><line x1="300" y1="12" x2="300" y2="20"/></g><g transform="rotate(155 300 300)"><line x1="300" y1="12" x2="300" y2="20"/></g><g transform="rotate(160 300 300)"><line x1="300" y1="12" x2="300" y2="20"/></g><g transform="rotate(165 300 300)"><line x1="300" y1="12" x2="300" y2="20"/></g><g transform="rotate(170 300 300)"><line x1="300" y1="12" x2="300" y2="20"/></g><g transform="rotate(175 300 300)"><line x1="300" y1="12" x2="300" y2="20"/></g><g transform="rotate(180 300 300)"><line x1="300" y1="12" x2="300" y2="20"/></g><g transform="rotate(185 300 300)"><line x1="300" y1="12" x2="300" y2="20"/></g><g transform="rotate(190 300 300)"><line x1="300" y1="12" x2="300" y2="20"/></g><g transform="rotate(195 300 300)"><line x1="300" y1="12" x2="300" y2="20"/></g><g transform="rotate(200 300 300)"><line x1="300" y1="12" x2="300" y2="20"/></g><g transform="rotate(205 300 300)"><line x1="300" y1="12" x2="300" y2="20"/></g><g transform="rotate(210 300 300)"><line x1="300" y1="12" x2="300" y2="20"/></g><g transform="rotate(215 300 300)"><line x1="300" y1="12" x2="300" y2="20"/></g><g transform="rotate(220 300 300)"><line x1="300" y1="12" x2="300" y2="20"/></g><g transform="rotate(225 300 300)"><line x1="300" y1="12" x2="300" y2="20"/></g><g transform="rotate(230 300 300)"><line x1="300" y1="12" x2="300" y2="20"/></g><g transform="rotate(235 300 300)"><line x1="300" y1="12" x2="300" y2="20"/></g><g transform="rotate(240 300 300)"><line x1="300" y1="12" x2="300" y2="20"/></g><g transform="rotate(245 300 300)"><line x1="300" y1="12" x2="300" y2="20"/></g><g transform="rotate(250 300 300)"><line x1="300" y1="12" x2="300" y2="20"/></g><g transform="rotate(255 300 300)"><line x1="300" y1="12" x2="300" y2="20"/></g><g transform="rotate(260 300 300)"><line x1="300" y1="12" x2="300" y2="20"/></g><g transform="rotate(265 300 300)"><line x1="300" y1="12" x2="300" y2="20"/></g><g transform="rotate(270 300 300)"><line x1="300" y1="12" x2="300" y2="20"/></g><g transform="rotate(275 300 300)"><line x1="300" y1="12" x2="300" y2="20"/></g><g transform="rotate(280 300 300)"><line x1="300" y1="12" x2="300" y2="20"/></g><g transform="rotate(285 300 300)"><line x1="300" y1="12" x2="300" y2="20"/></g><g transform="rotate(290 300 300)"><line x1="300" y1="12" x2="300" y2="20"/></g><g transform="rotate(295 300 300)"><line x1="300" y1="12" x2="300" y2="20"/></g><g transform="rotate(300 300 300)"><line x1="300" y1="12" x2="300" y2="20"/></g><g transform="rotate(305 300 300)"><line x1="300" y1="12" x2="300" y2="20"/></g><g transform="rotate(310 300 300)"><line x1="300" y1="12" x2="300" y2="20"/></g><g transform="rotate(315 300 300)"><line x1="300" y1="12" x2="300" y2="20"/></g><g transform="rotate(320 300 300)"><line x1="300" y1="12" x2="300" y2="20"/></g><g transform="rotate(325 300 300)"><line x1="300" y1="12" x2="300" y2="20"/></g><g transform="rotate(330 300 300)"><line x1="300" y1="12" x2="300" y2="20"/></g><g transform="rotate(335 300 300)"><line x1="300" y1="12" x2="300" y2="20"/></g><g transform="rotate(340 300 300)"><line x1="300" y1="12" x2="300" y2="20"/></g><g transform="rotate(345 300 300)"><line x1="300" y1="12" x2="300" y2="20"/></g><g transform="rotate(350 300 300)"><line x1="300" y1="12" x2="300" y2="20"/></g><g transform="rotate(355 300 300)"><line x1="300" y1="12" x2="300" y2="20"/></g>
    </g>
    <g opacity="0.9"><g transform="rotate(0 300 300)"><path d="M 300 120 C 276 98, 276 62, 300 50 C 324 62, 324 98, 300 120 Z"/></g><g transform="rotate(15 300 300)"><path d="M 300 120 C 276 98, 276 62, 300 50 C 324 62, 324 98, 300 120 Z"/></g><g transform="rotate(30 300 300)"><path d="M 300 120 C 276 98, 276 62, 300 50 C 324 62, 324 98, 300 120 Z"/></g><g transform="rotate(45 300 300)"><path d="M 300 120 C 276 98, 276 62, 300 50 C 324 62, 324 98, 300 120 Z"/></g><g transform="rotate(60 300 300)"><path d="M 300 120 C 276 98, 276 62, 300 50 C 324 62, 324 98, 300 120 Z"/></g><g transform="rotate(75 300 300)"><path d="M 300 120 C 276 98, 276 62, 300 50 C 324 62, 324 98, 300 120 Z"/></g><g transform="rotate(90 300 300)"><path d="M 300 120 C 276 98, 276 62, 300 50 C 324 62, 324 98, 300 120 Z"/></g><g transform="rotate(105 300 300)"><path d="M 300 120 C 276 98, 276 62, 300 50 C 324 62, 324 98, 300 120 Z"/></g><g transform="rotate(120 300 300)"><path d="M 300 120 C 276 98, 276 62, 300 50 C 324 62, 324 98, 300 120 Z"/></g><g transform="rotate(135 300 300)"><path d="M 300 120 C 276 98, 276 62, 300 50 C 324 62, 324 98, 300 120 Z"/></g><g transform="rotate(150 300 300)"><path d="M 300 120 C 276 98, 276 62, 300 50 C 324 62, 324 98, 300 120 Z"/></g><g transform="rotate(165 300 300)"><path d="M 300 120 C 276 98, 276 62, 300 50 C 324 62, 324 98, 300 120 Z"/></g><g transform="rotate(180 300 300)"><path d="M 300 120 C 276 98, 276 62, 300 50 C 324 62, 324 98, 300 120 Z"/></g><g transform="rotate(195 300 300)"><path d="M 300 120 C 276 98, 276 62, 300 50 C 324 62, 324 98, 300 120 Z"/></g><g transform="rotate(210 300 300)"><path d="M 300 120 C 276 98, 276 62, 300 50 C 324 62, 324 98, 300 120 Z"/></g><g transform="rotate(225 300 300)"><path d="M 300 120 C 276 98, 276 62, 300 50 C 324 62, 324 98, 300 120 Z"/></g><g transform="rotate(240 300 300)"><path d="M 300 120 C 276 98, 276 62, 300 50 C 324 62, 324 98, 300 120 Z"/></g><g transform="rotate(255 300 300)"><path d="M 300 120 C 276 98, 276 62, 300 50 C 324 62, 324 98, 300 120 Z"/></g><g transform="rotate(270 300 300)"><path d="M 300 120 C 276 98, 276 62, 300 50 C 324 62, 324 98, 300 120 Z"/></g><g transform="rotate(285 300 300)"><path d="M 300 120 C 276 98, 276 62, 300 50 C 324 62, 324 98, 300 120 Z"/></g><g transform="rotate(300 300 300)"><path d="M 300 120 C 276 98, 276 62, 300 50 C 324 62, 324 98, 300 120 Z"/></g><g transform="rotate(315 300 300)"><path d="M 300 120 C 276 98, 276 62, 300 50 C 324 62, 324 98, 300 120 Z"/></g><g transform="rotate(330 300 300)"><path d="M 300 120 C 276 98, 276 62, 300 50 C 324 62, 324 98, 300 120 Z"/></g><g transform="rotate(345 300 300)"><path d="M 300 120 C 276 98, 276 62, 300 50 C 324 62, 324 98, 300 120 Z"/></g></g>
    <g opacity="0.7" fill="url(#mg)" stroke="none"><g transform="rotate(0 300 300)"><circle cx="300" cy="94" r="3"/></g><g transform="rotate(7.5 300 300)"><circle cx="300" cy="94" r="3"/></g><g transform="rotate(15 300 300)"><circle cx="300" cy="94" r="3"/></g><g transform="rotate(22.5 300 300)"><circle cx="300" cy="94" r="3"/></g><g transform="rotate(30 300 300)"><circle cx="300" cy="94" r="3"/></g><g transform="rotate(37.5 300 300)"><circle cx="300" cy="94" r="3"/></g><g transform="rotate(45 300 300)"><circle cx="300" cy="94" r="3"/></g><g transform="rotate(52.5 300 300)"><circle cx="300" cy="94" r="3"/></g><g transform="rotate(60 300 300)"><circle cx="300" cy="94" r="3"/></g><g transform="rotate(67.5 300 300)"><circle cx="300" cy="94" r="3"/></g><g transform="rotate(75 300 300)"><circle cx="300" cy="94" r="3"/></g><g transform="rotate(82.5 300 300)"><circle cx="300" cy="94" r="3"/></g><g transform="rotate(90 300 300)"><circle cx="300" cy="94" r="3"/></g><g transform="rotate(97.5 300 300)"><circle cx="300" cy="94" r="3"/></g><g transform="rotate(105 300 300)"><circle cx="300" cy="94" r="3"/></g><g transform="rotate(112.5 300 300)"><circle cx="300" cy="94" r="3"/></g><g transform="rotate(120 300 300)"><circle cx="300" cy="94" r="3"/></g><g transform="rotate(127.5 300 300)"><circle cx="300" cy="94" r="3"/></g><g transform="rotate(135 300 300)"><circle cx="300" cy="94" r="3"/></g><g transform="rotate(142.5 300 300)"><circle cx="300" cy="94" r="3"/></g><g transform="rotate(150 300 300)"><circle cx="300" cy="94" r="3"/></g><g transform="rotate(157.5 300 300)"><circle cx="300" cy="94" r="3"/></g><g transform="rotate(165 300 300)"><circle cx="300" cy="94" r="3"/></g><g transform="rotate(172.5 300 300)"><circle cx="300" cy="94" r="3"/></g><g transform="rotate(180 300 300)"><circle cx="300" cy="94" r="3"/></g><g transform="rotate(187.5 300 300)"><circle cx="300" cy="94" r="3"/></g><g transform="rotate(195 300 300)"><circle cx="300" cy="94" r="3"/></g><g transform="rotate(202.5 300 300)"><circle cx="300" cy="94" r="3"/></g><g transform="rotate(210 300 300)"><circle cx="300" cy="94" r="3"/></g><g transform="rotate(217.5 300 300)"><circle cx="300" cy="94" r="3"/></g><g transform="rotate(225 300 300)"><circle cx="300" cy="94" r="3"/></g><g transform="rotate(232.5 300 300)"><circle cx="300" cy="94" r="3"/></g><g transform="rotate(240 300 300)"><circle cx="300" cy="94" r="3"/></g><g transform="rotate(247.5 300 300)"><circle cx="300" cy="94" r="3"/></g><g transform="rotate(255 300 300)"><circle cx="300" cy="94" r="3"/></g><g transform="rotate(262.5 300 300)"><circle cx="300" cy="94" r="3"/></g><g transform="rotate(270 300 300)"><circle cx="300" cy="94" r="3"/></g><g transform="rotate(277.5 300 300)"><circle cx="300" cy="94" r="3"/></g><g transform="rotate(285 300 300)"><circle cx="300" cy="94" r="3"/></g><g transform="rotate(292.5 300 300)"><circle cx="300" cy="94" r="3"/></g><g transform="rotate(300 300 300)"><circle cx="300" cy="94" r="3"/></g><g transform="rotate(307.5 300 300)"><circle cx="300" cy="94" r="3"/></g><g transform="rotate(315 300 300)"><circle cx="300" cy="94" r="3"/></g><g transform="rotate(322.5 300 300)"><circle cx="300" cy="94" r="3"/></g><g transform="rotate(330 300 300)"><circle cx="300" cy="94" r="3"/></g><g transform="rotate(337.5 300 300)"><circle cx="300" cy="94" r="3"/></g><g transform="rotate(345 300 300)"><circle cx="300" cy="94" r="3"/></g><g transform="rotate(352.5 300 300)"><circle cx="300" cy="94" r="3"/></g></g>
    <g opacity="0.5"><circle cx="300" cy="300" r="200" stroke-dasharray="4 7"/></g>
    <g opacity="0.85"><g transform="rotate(0 300 300)"><path d="M 300 176 C 282 154, 282 136, 300 124 C 318 136, 318 154, 300 176 Z"/></g><g transform="rotate(20 300 300)"><path d="M 300 176 C 282 154, 282 136, 300 124 C 318 136, 318 154, 300 176 Z"/></g><g transform="rotate(40 300 300)"><path d="M 300 176 C 282 154, 282 136, 300 124 C 318 136, 318 154, 300 176 Z"/></g><g transform="rotate(60 300 300)"><path d="M 300 176 C 282 154, 282 136, 300 124 C 318 136, 318 154, 300 176 Z"/></g><g transform="rotate(80 300 300)"><path d="M 300 176 C 282 154, 282 136, 300 124 C 318 136, 318 154, 300 176 Z"/></g><g transform="rotate(100 300 300)"><path d="M 300 176 C 282 154, 282 136, 300 124 C 318 136, 318 154, 300 176 Z"/></g><g transform="rotate(120 300 300)"><path d="M 300 176 C 282 154, 282 136, 300 124 C 318 136, 318 154, 300 176 Z"/></g><g transform="rotate(140 300 300)"><path d="M 300 176 C 282 154, 282 136, 300 124 C 318 136, 318 154, 300 176 Z"/></g><g transform="rotate(160 300 300)"><path d="M 300 176 C 282 154, 282 136, 300 124 C 318 136, 318 154, 300 176 Z"/></g><g transform="rotate(180 300 300)"><path d="M 300 176 C 282 154, 282 136, 300 124 C 318 136, 318 154, 300 176 Z"/></g><g transform="rotate(200 300 300)"><path d="M 300 176 C 282 154, 282 136, 300 124 C 318 136, 318 154, 300 176 Z"/></g><g transform="rotate(220 300 300)"><path d="M 300 176 C 282 154, 282 136, 300 124 C 318 136, 318 154, 300 176 Z"/></g><g transform="rotate(240 300 300)"><path d="M 300 176 C 282 154, 282 136, 300 124 C 318 136, 318 154, 300 176 Z"/></g><g transform="rotate(260 300 300)"><path d="M 300 176 C 282 154, 282 136, 300 124 C 318 136, 318 154, 300 176 Z"/></g><g transform="rotate(280 300 300)"><path d="M 300 176 C 282 154, 282 136, 300 124 C 318 136, 318 154, 300 176 Z"/></g><g transform="rotate(300 300 300)"><path d="M 300 176 C 282 154, 282 136, 300 124 C 318 136, 318 154, 300 176 Z"/></g><g transform="rotate(320 300 300)"><path d="M 300 176 C 282 154, 282 136, 300 124 C 318 136, 318 154, 300 176 Z"/></g><g transform="rotate(340 300 300)"><path d="M 300 176 C 282 154, 282 136, 300 124 C 318 136, 318 154, 300 176 Z"/></g></g>
    <g opacity="0.45"><circle cx="300" cy="300" r="150"/></g>
    <g opacity="0.7" fill="url(#mg)" stroke="none"><g transform="rotate(0 300 300)"><rect x="295" y="171" width="10" height="10" transform="rotate(45 300 176)"/></g><g transform="rotate(15 300 300)"><rect x="295" y="171" width="10" height="10" transform="rotate(45 300 176)"/></g><g transform="rotate(30 300 300)"><rect x="295" y="171" width="10" height="10" transform="rotate(45 300 176)"/></g><g transform="rotate(45 300 300)"><rect x="295" y="171" width="10" height="10" transform="rotate(45 300 176)"/></g><g transform="rotate(60 300 300)"><rect x="295" y="171" width="10" height="10" transform="rotate(45 300 176)"/></g><g transform="rotate(75 300 300)"><rect x="295" y="171" width="10" height="10" transform="rotate(45 300 176)"/></g><g transform="rotate(90 300 300)"><rect x="295" y="171" width="10" height="10" transform="rotate(45 300 176)"/></g><g transform="rotate(105 300 300)"><rect x="295" y="171" width="10" height="10" transform="rotate(45 300 176)"/></g><g transform="rotate(120 300 300)"><rect x="295" y="171" width="10" height="10" transform="rotate(45 300 176)"/></g><g transform="rotate(135 300 300)"><rect x="295" y="171" width="10" height="10" transform="rotate(45 300 176)"/></g><g transform="rotate(150 300 300)"><rect x="295" y="171" width="10" height="10" transform="rotate(45 300 176)"/></g><g transform="rotate(165 300 300)"><rect x="295" y="171" width="10" height="10" transform="rotate(45 300 176)"/></g><g transform="rotate(180 300 300)"><rect x="295" y="171" width="10" height="10" transform="rotate(45 300 176)"/></g><g transform="rotate(195 300 300)"><rect x="295" y="171" width="10" height="10" transform="rotate(45 300 176)"/></g><g transform="rotate(210 300 300)"><rect x="295" y="171" width="10" height="10" transform="rotate(45 300 176)"/></g><g transform="rotate(225 300 300)"><rect x="295" y="171" width="10" height="10" transform="rotate(45 300 176)"/></g><g transform="rotate(240 300 300)"><rect x="295" y="171" width="10" height="10" transform="rotate(45 300 176)"/></g><g transform="rotate(255 300 300)"><rect x="295" y="171" width="10" height="10" transform="rotate(45 300 176)"/></g><g transform="rotate(270 300 300)"><rect x="295" y="171" width="10" height="10" transform="rotate(45 300 176)"/></g><g transform="rotate(285 300 300)"><rect x="295" y="171" width="10" height="10" transform="rotate(45 300 176)"/></g><g transform="rotate(300 300 300)"><rect x="295" y="171" width="10" height="10" transform="rotate(45 300 176)"/></g><g transform="rotate(315 300 300)"><rect x="295" y="171" width="10" height="10" transform="rotate(45 300 176)"/></g><g transform="rotate(330 300 300)"><rect x="295" y="171" width="10" height="10" transform="rotate(45 300 176)"/></g><g transform="rotate(345 300 300)"><rect x="295" y="171" width="10" height="10" transform="rotate(45 300 176)"/></g></g>
    <g opacity="0.5"><circle cx="300" cy="300" r="100" stroke-dasharray="3 6"/></g>
    <g opacity="0.9"><g transform="rotate(0 300 300)"><path d="M 300 254 C 286 232, 286 226, 300 214 C 314 226, 314 232, 300 254 Z"/></g><g transform="rotate(30 300 300)"><path d="M 300 254 C 286 232, 286 226, 300 214 C 314 226, 314 232, 300 254 Z"/></g><g transform="rotate(60 300 300)"><path d="M 300 254 C 286 232, 286 226, 300 214 C 314 226, 314 232, 300 254 Z"/></g><g transform="rotate(90 300 300)"><path d="M 300 254 C 286 232, 286 226, 300 214 C 314 226, 314 232, 300 254 Z"/></g><g transform="rotate(120 300 300)"><path d="M 300 254 C 286 232, 286 226, 300 214 C 314 226, 314 232, 300 254 Z"/></g><g transform="rotate(150 300 300)"><path d="M 300 254 C 286 232, 286 226, 300 214 C 314 226, 314 232, 300 254 Z"/></g><g transform="rotate(180 300 300)"><path d="M 300 254 C 286 232, 286 226, 300 214 C 314 226, 314 232, 300 254 Z"/></g><g transform="rotate(210 300 300)"><path d="M 300 254 C 286 232, 286 226, 300 214 C 314 226, 314 232, 300 254 Z"/></g><g transform="rotate(240 300 300)"><path d="M 300 254 C 286 232, 286 226, 300 214 C 314 226, 314 232, 300 254 Z"/></g><g transform="rotate(270 300 300)"><path d="M 300 254 C 286 232, 286 226, 300 214 C 314 226, 314 232, 300 254 Z"/></g><g transform="rotate(300 300 300)"><path d="M 300 254 C 286 232, 286 226, 300 214 C 314 226, 314 232, 300 254 Z"/></g><g transform="rotate(330 300 300)"><path d="M 300 254 C 286 232, 286 226, 300 214 C 314 226, 314 232, 300 254 Z"/></g></g>
    <g opacity="0.7"><circle cx="300" cy="300" r="44"/><circle cx="300" cy="300" r="26"/></g>
    <g opacity="0.9" fill="url(#mg)" stroke="none"><g transform="rotate(0 300 300)"><circle cx="300" cy="286" r="3"/></g><g transform="rotate(45 300 300)"><circle cx="300" cy="286" r="3"/></g><g transform="rotate(90 300 300)"><circle cx="300" cy="286" r="3"/></g><g transform="rotate(135 300 300)"><circle cx="300" cy="286" r="3"/></g><g transform="rotate(180 300 300)"><circle cx="300" cy="286" r="3"/></g><g transform="rotate(225 300 300)"><circle cx="300" cy="286" r="3"/></g><g transform="rotate(270 300 300)"><circle cx="300" cy="286" r="3"/></g><g transform="rotate(315 300 300)"><circle cx="300" cy="286" r="3"/></g><circle cx="300" cy="300" r="6"/></g>
  </g>
</svg>